<?xml version="1.0" encoding="iso-8859-1"?>
<!-- Generator: Adobe Illustrator 19.0.0, SVG Export Plug-In . SVG Version: 6.00 Build 0)  -->
<svg version="1.1" id="Capa_1" xmlns="http://www.w3.org/2000/svg" xmlns:xlink="http://www.w3.org/1999/xlink" x="0px" y="0px"
	 viewBox="0 0 512 512" style="enable-background:new 0 0 512 512;" xml:space="preserve">
<g>
	<g>
		<path d="M256,0C171.232,0,80,20.032,80,64v384c0,43.968,91.232,64,176,64s176-20.032,176-64V64C432,20.032,340.768,0,256,0z
			 M112,64.192C114.576,55.296,162.544,32,256,32c92.736,0,140.704,22.944,143.952,32C396.704,73.056,348.736,96,256,96
			c-93.456,0-141.424-23.296-144-31.712V64.192z M256,480c-93.584,0-141.584-23.36-144.016-31.76
			C114.416,439.36,162.416,416,256,416c92.736,0,140.704,22.944,143.952,32C396.704,457.056,348.736,480,256,480z M400,409.168
			C365.952,392.08,309.712,384,256,384c-53.712,0-109.952,8.08-144,25.152V102.848C146.048,119.92,202.288,128,256,128
			c53.712,0,109.952-8.08,144-25.152V409.168z"/>
	</g>
</g>
<g>
</g>
<g>
</g>
<g>
</g>
<g>
</g>
<g>
</g>
<g>
</g>
<g>
</g>
<g>
</g>
<g>
</g>
<g>
</g>
<g>
</g>
<g>
</g>
<g>
</g>
<g>
</g>
<g>
</g>
</svg>
